#!OML:ASF I:\Random Stuff\random\construction\7_22_03\Session 2\subj1.ASF
:FULLY-SPECIFIED
:DEGREES
1854
root 12.2195 17.5586 -1.78204 12.106 -132.49 20.1404
lowerback 24.3162 4.85424 -7.21551
upperback 6.76774 2.55886 -7.72041
thorax -6.01075 0.759483 -5.09309
lowerneck -21.2297 12.9886 6.77579
upperneck 26.9758 19.5771 -12.8068
head 15.0522 7.24988 -2.36713
rclavicle 9.54166e-015 0
rhumerus 2.7026 52.9444 -74.5645
rradius 100.192
rwrist -25.9846
rhand -2.25809 -0.0100346
rfingers 7.12502
rthumb 23.4258 -28.6041
lclavicle 9.54166e-015 0
lhumerus 27.6647 5.04202 78.9471
lradius 31.2921
lwrist 53.5614
lhand -11.0196 77.2736
lfingers 7.12502
lthumb 15.0016 613.29
rfemur -24.9742 0.564321 22.8408
rtibia 18.1806
rfoot -6.90865 -5.91746
rtoes -4.90073
lfemur -50.722 4.66395 -6.41543
ltibia 42.4871
lfoot -17.6906 0.625488
ltoes -40.3441
1855
root 12.2718 17.5492 -1.79497 12.2415 -132.343 19.8736
lowerback 24.1497 4.45894 -7.89844
upperback 6.85048 2.00908 -7.13794
thorax -5.90063 0.508281 -3.87663
lowerneck -21.2719 13.4012 5.73853
upperneck 26.8113 20.591 -13.1483
head 15.045 7.52691 -2.10834
rclavicle 1.59028e-014 1.11319e-013
rhumerus 3.79037 54.8713 -72.7417
rradius 100.489
rwrist -26.3963
rhand -2.19584 -0.0936069
rfingers 7.12502
rthumb 23.4855 -28.6801
lclavicle 1.59028e-014 1.11319e-013
lhumerus 26.7774 6.85827 79.7416
lradius 31.8403
lwrist 54.1896
lhand -12.6731 76.0546
lfingers 7.12502
lthumb 13.4083 614.397
rfemur -25.2011 0.5081 22.5802
rtibia 18.305
rfoot -6.88832 -6.36803
rtoes -6.17688
lfemur -50.7906 4.84647 -6.60844
ltibia 42.4475
lfoot -17.7451 0.349046
ltoes -41.0757
1856
root 12.3294 17.5389 -1.81045 12.2932 -132.191 19.6176
lowerback 24.1716 4.40781 -7.8357
upperback 6.97809 1.96705 -7.06104
thorax -5.77143 0.481985 -3.80922
lowerneck -21.4991 13.4312 5.73856
upperneck 26.9293 20.7338 -13.3912
head 15.2089 7.52867 -2.1605
rclavicle -4.13472e-014 -6.52014e-014
rhumerus 3.68287 55.1349 -72.2239
rradius 100.69
rwrist -26.5586
rhand -2.08772 -0.223243
rfingers 7.12502
rthumb 23.5893 -28.7964
lclavicle -4.13472e-014 -6.52014e-014
lhumerus 26.5068 7.35138 80.3663
lradius 31.7553
lwrist 52.824
lhand -11.081 76.3934
lfingers 7.12502
lthumb 14.9425 614.166
rfemur -25.2842 0.655924 22.2611
rtibia 18.3272
rfoot -6.85373 -7.03013
rtoes -5.79221
lfemur -50.7659 5.07503 -6.82014
ltibia 42.4283
lfoot -17.8623 0.080305
ltoes -42.3686
1857
root 12.3918 17.5298 -1.82903 12.316 -132.061 19.3947
lowerback 24.1998 4.36241 -7.79143
upperback 7.05538 1.92304 -7.01243
thorax -5.70079 0.457297 -3.76517
lowerneck -21.5674 13.4597 5.81594
upperneck 27.0364 20.8133 -13.5437
head 15.3204 7.534 -2.21203
rclavicle 0 1.08139e-013
rhumerus 3.45779 55.416 -71.8471
rradius 100.846
rwrist -26.7262
rhand -2.1226 -0.195688
rfingers 7.12502
rthumb 23.5558 -28.7731
lclavicle 0 1.08139e-013
lhumerus 26.2411 7.5404 80.787
lradius 31.6072
lwrist 52.6637
lhand -10.6372 76.4647
lfingers 7.12502
lthumb 15.37 614.127
rfemur -25.2961 0.902766 21.9834
rtibia 18.1832
rfoot -6.50181 -7.84828
rtoes -7.1778
lfemur -50.7644 5.15326 -6.91552
ltibia 42.3988
lfoot -17.7545 0.136728
ltoes -43.755
1858
root 12.454 17.5212 -1.85263 12.302 -131.954 19.187
lowerback 24.2498 4.30902 -7.73656
upperback 7.09285 1.86253 -7.00297
thorax -5.68377 0.426308 -3.76871
lowerneck -21.4921 13.4781 5.88116
upperneck 27.1223 20.823 -13.5366
head 15.3522 7.54172 -2.22243
rclavicle 0 1.7016e-013
rhumerus 3.13641 55.7189 -71.674
rradius 100.909
rwrist -26.778
rhand -2.34618 0.0367138
rfingers 7.12502
rthumb 23.3413 -28.5681
lclavicle 0 1.7016e-013
lhumerus 25.8027 7.21765 80.8492
lradius 31.6342
lwrist 54.1165
lhand -12.1305 76.0159
lfingers 7.12502
lthumb 13.9312 614.471
rfemur -25.2929 0.711966 21.9811
rtibia 17.9777
rfoot -5.63241 -8.25581
rtoes -15.7432
lfemur -50.7713 5.02729 -6.82736
ltibia 42.3845
lfoot -17.5174 0.181027
ltoes -43.6783
1859
root 12.5183 17.5248 -1.87897 12.2947 -131.854 18.9083
lowerback 24.3388 4.31823 -7.58781
upperback 7.15711 1.88571 -7.06484
thorax -5.65016 0.431587 -3.93047
lowerneck -21.5272 13.4283 5.91977
upperneck 27.3559 20.7152 -13.374
head 15.4307 7.50217 -2.1918
rclavicle 1.59028e-014 -4.45278e-014
rhumerus 2.61357 55.7162 -71.7205
rradius 100.912
rwrist -26.6964
rhand -2.34842 0.217325
rfingers 7.12502
rthumb 23.3392 -28.3878
lclavicle 1.59028e-014 -4.45278e-014
lhumerus 25.4769 6.97556 81.0169
lradius 31.5026
lwrist 54.2001
lhand -11.814 76.1134
lfingers 7.12502
lthumb 14.2362 614.394
rfemur -24.9882 1.8016 21.2941
rtibia 17.7663
rfoot -6.23241 -8.89762
rtoes -10.8634
lfemur -50.7138 4.78653 -6.66061
ltibia 42.3706
lfoot -17.3309 -0.127437
ltoes -41.5701
1860
root 12.5887 17.518 -1.90806 12.3426 -131.751 18.6281
lowerback 24.4389 4.55672 -6.95797
upperback 7.20589 2.26775 -7.45282
thorax -5.59848 0.604625 -4.83686
lowerneck -21.6001 13.084 6.52073
upperneck 27.7161 19.9637 -13.0476
head 15.5361 7.269 -2.33233
rclavicle 1.49486e-013 1.03368e-013
rhumerus 1.04956 54.548 -72.8989
rradius 100.874
rwrist -26.5289
rhand -2.31343 0.272773
rfingers 7.12502
rthumb 23.3727 -28.3281
lclavicle 1.49486e-013 1.03368e-013
lhumerus 25.3422 5.46095 80.9606
lradius 31.3919
lwrist 54.4201
lhand -11.6732 76.0633
lfingers 7.12502
lthumb 14.3719 614.454
rfemur -24.674 2.16533 21.0023
rtibia 17.5186
rfoot -6.76322 -9.07637
rtoes -10.7733
lfemur -50.717 4.61553 -6.51822
ltibia 42.4104
lfoot -17.2397 -0.38267
ltoes -39.9406
1861
root 12.6632 17.5006 -1.94352 12.3319 -131.674 18.3897
lowerback 24.2854 4.28489 -7.63473
upperback 7.29643 1.84405 -7.0186
thorax -5.47282 0.403087 -3.83179
lowerneck -21.4327 13.3542 5.61678
upperneck 27.3564 20.6357 -13.1527
head 15.3226 7.47441 -2.08404
rclavicle -3.49861e-014 -1.24042e-013
rhumerus 1.90926 56.0341 -71.6065
rradius 100.876
rwrist -26.669
rhand -2.41284 0.233372
rfingers 7.12502
rthumb 23.2774 -28.3796
lclavicle -3.49861e-014 -1.24042e-013
lhumerus 24.8699 7.29109 81.683
lradius 31.3089
lwrist 54.0881
lhand -11.8741 75.8826
lfingers 7.12502
lthumb 14.1783 614.621
rfemur -24.341 1.96632 21.0646
rtibia 17.3316
rfoot -7.00229 -9.02902
rtoes -14.8964
lfemur -50.6512 4.52153 -6.37916
ltibia 42.4654
lfoot -17.1526 -0.407314
ltoes -39.7204
1862
root 12.7396 17.4792 -1.97816 12.3024 -131.487 18.1006
lowerback 24.2593 4.20149 -7.6727
upperback 7.45041 1.73629 -6.97012
thorax -5.29359 0.341654 -3.71771
lowerneck -21.3934 13.3848 5.46134
upperneck 27.2832 20.7122 -13.1234
head 15.2647 7.50327 -2.03252
rclavicle 6.36111e-014 1.59028e-013
rhumerus 1.80365 56.2079 -71.3834
rradius 100.857
rwrist -26.5233
rhand -2.36758 0.171502
rfingers 7.12502
rthumb 23.3208 -28.4359
lclavicle 6.36111e-014 1.59028e-013
lhumerus 24.7525 7.94542 82.1914
lradius 31.1729
lwrist 53.3768
lhand -11.715 75.4931
lfingers 7.12502
lthumb 14.3316 615.022
rfemur -24.0713 1.50991 21.1891
rtibia 17.3352
rfoot -7.36281 -8.8575
rtoes -19.2921
lfemur -50.5829 4.27568 -6.23761
ltibia 42.5198
lfoot -16.9448 -0.420314
ltoes -39.4426
